<?xml version="1.0" ?><!DOCTYPE svg  PUBLIC '-//W3C//DTD SVG 1.1//EN'  'http://www.w3.org/Graphics/SVG/1.1/DTD/svg11.dtd'><svg enable-background="new 0 0 128 128" id="Слой_1" version="1.1" viewBox="0 0 128 128" xml:space="preserve" xmlns="http://www.w3.org/2000/svg" xmlns:xlink="http://www.w3.org/1999/xlink"><g><g><path d="M109,34v75c0,8.3-6.7,15-15,15H34c-8.3,0-15-6.7-15-15V19c0-8.3,6.7-15,15-15h45L109,34z" fill="#F6F3E0"/></g><g><path d="M94,125.2H34c-9,0-16.2-7.3-16.2-16.2V19C17.8,10,25,2.8,34,2.8h45c0.3,0,0.6,0.1,0.9,0.4l30,30    c0.2,0.2,0.4,0.6,0.4,0.9v75C110.2,118,103,125.2,94,125.2z M34,5.2c-7.6,0-13.8,6.2-13.8,13.8v90c0,7.6,6.2,13.8,13.8,13.8h60    c7.6,0,13.8-6.2,13.8-13.8V34.5L78.5,5.2H34z" fill="#2D2E2D"/></g><g><path d="M94,110.2H34c-0.7,0-1.2-0.6-1.2-1.2s0.6-1.2,1.2-1.2h60c0.7,0,1.2,0.6,1.2,1.2S94.7,110.2,94,110.2z" fill="#2D2E2D"/></g><g><path d="M94,98.2H34c-0.7,0-1.2-0.6-1.2-1.2s0.6-1.2,1.2-1.2h60c0.7,0,1.2,0.6,1.2,1.2S94.7,98.2,94,98.2z" fill="#2D2E2D"/></g><g><path d="M94,86.2H34c-0.7,0-1.2-0.6-1.2-1.2s0.6-1.2,1.2-1.2h60c0.7,0,1.2,0.6,1.2,1.2S94.7,86.2,94,86.2z" fill="#2D2E2D"/></g><g opacity="0.1"><path d="M109,38v-4L79,4h-4v15c0,10.5,8.5,19,19,19H109z" fill="#030505"/></g><g><path d="M79,19c0,8.3,6.7,15,15,15h15L79,4V19z" fill="#A3CA55"/></g><g><path d="M109,35.2H94c-9,0-16.2-7.3-16.2-16.2V4c0-0.5,0.3-1,0.8-1.2c0.5-0.2,1-0.1,1.4,0.3l30,30    c0.4,0.4,0.5,0.9,0.3,1.4C110,34.9,109.5,35.2,109,35.2z M80.2,7v12c0,7.6,6.2,13.8,13.8,13.8h12L80.2,7z" fill="#2D2E2D"/></g><g><path d="M42.8,69.6    c0,1.2-0.8,2-2,2c-1.1,0-2-0.8-2-2c0-1.1,0.8-1.9,2-1.9C42,67.7,42.8,68.5,42.8,69.6z" fill="#2D2E2D" stroke="#2D2E2D" stroke-linecap="round" stroke-linejoin="round" stroke-miterlimit="10"/><path d="M46.5,57.5    c-0.2-0.2-0.3-0.5-0.3-0.7c0-0.4,0.2-0.8,0.6-1c0.3-0.2,0.5-0.3,0.8-0.3c0.3,0,0.7,0.1,0.9,0.5l4,5.5l3.8-5.5    c0.3-0.3,0.6-0.5,0.9-0.5c0.3,0,0.5,0.1,0.8,0.3c0.3,0.2,0.6,0.6,0.6,1c0,0.2-0.1,0.5-0.3,0.7l-4.3,5.8l4.6,6.2    c0.2,0.2,0.3,0.5,0.3,0.7c0,0.4-0.2,0.8-0.5,1c-0.3,0.2-0.5,0.3-0.8,0.3c-0.3,0-0.7-0.1-0.9-0.5l-4.2-6l-4.2,6    c-0.3,0.3-0.6,0.5-0.9,0.5s-0.6-0.1-0.9-0.3c-0.3-0.3-0.5-0.6-0.5-1c0-0.2,0.1-0.5,0.3-0.7l4.7-6.3L46.5,57.5z" fill="#2D2E2D" stroke="#2D2E2D" stroke-linecap="round" stroke-linejoin="round" stroke-miterlimit="10"/><path d="M82.8,70.5    c0,0.8-0.6,1.1-1.3,1.1c-0.8,0-1.3-0.4-1.3-1.1v-9c0-2.4-0.7-3.8-2.7-3.8c-1.5,0-2.5,0.9-3.2,1.9c-0.4,0.6-0.8,1.7-0.8,2.5v8.3    c0,0.8-0.5,1.1-1.3,1.1c-0.8,0-1.3-0.4-1.3-1.1v-9c0-2.4-0.7-3.8-2.7-3.8c-1.5,0-2.4,0.9-3.1,1.9c-0.5,0.8-0.8,1.8-0.8,2.7v8.2    c0,0.8-0.5,1.1-1.2,1.1c-0.8,0-1.3-0.4-1.3-1.1V56.7c0-0.7,0.5-1.1,1.3-1.1c0.7,0,1.2,0.4,1.2,1.1v0.6c0,0.4-0.1,0.9-0.2,1.4    c0.7-1.7,1.9-3.2,4.7-3.2c2.5,0,3.8,1.1,4.2,3.1c0.8-1.5,1.8-3.1,5-3.1c3.3,0,4.7,2,4.7,5.5V70.5z" fill="#2D2E2D" stroke="#2D2E2D" stroke-linecap="round" stroke-linejoin="round" stroke-miterlimit="10"/><path d="M86.8,50.4    c0-0.8,0.5-1.1,1.3-1.1c0.8,0,1.3,0.4,1.3,1.1v20.1c0,0.8-0.5,1.1-1.3,1.1c-0.8,0-1.3-0.4-1.3-1.1V50.4z" fill="#2D2E2D" stroke="#2D2E2D" stroke-linecap="round" stroke-linejoin="round" stroke-miterlimit="10"/></g></g></svg>